<svg width="25" height="25" viewBox="0 0 25 25" fill="none" xmlns="http://www.w3.org/2000/svg">
<g clip-path="url(#clip0_163_31)">
<path d="M19.7917 8.55898e-08L5.20833 2.25236e-08C2.33229 1.00861e-08 -1.00861e-08 2.33229 -2.25236e-08 5.20833L-8.55898e-08 19.7917C-9.80274e-08 22.6677 2.33229 25 5.20833 25L19.7917 25C22.6687 25 25 22.6677 25 19.7917L25 5.20833C25 2.33229 22.6687 9.80319e-08 19.7917 8.55898e-08ZM8.33333 19.7917L5.20833 19.7917L5.20833 8.33333L8.33333 8.33333L8.33333 19.7917ZM6.77083 7.0125C5.76458 7.0125 4.94792 6.18958 4.94792 5.175C4.94792 4.16042 5.76458 3.3375 6.77083 3.3375C7.77708 3.3375 8.59375 4.16042 8.59375 5.175C8.59375 6.18958 7.77812 7.0125 6.77083 7.0125ZM20.8333 19.7917L17.7083 19.7917L17.7083 13.9542C17.7083 10.4458 13.5417 10.7115 13.5417 13.9542L13.5417 19.7917L10.4167 19.7917L10.4167 8.33333L13.5417 8.33333L13.5417 10.1719C14.9958 7.47812 20.8333 7.27917 20.8333 12.751L20.8333 19.7917Z" fill="#9197A0"/>
</g>
<defs>
<clipPath id="clip0_163_31">
<rect width="25" height="25" fill="white"/>
</clipPath>
</defs>
</svg>
