<svg width="80" height="80" viewBox="0 0 80 80" fill="none" xmlns="http://www.w3.org/2000/svg">
    <g clip-path="url(#clip0_146_134)">
        <path d="M44.0808 57.9394L56.139 67.3071L53.6024 51.9666L49.4016 51.0866L46.5789 46.3084C47.1425 45.7095 47.648 45.0367 48.0621 44.279C50.1919 40.3823 49.4064 35.7081 46.443 32.8455L49.1671 27.8613L53.3463 26.6723L55.5705 11.1555L43.7111 21.4062L44.9671 25.5666L42.2433 30.5503C38.2345 29.6014 33.8749 31.4644 31.7451 35.3611C31.3314 36.1182 31.0384 36.9064 30.8385 37.7034L25.2917 37.9081L22.2827 34.8477L8.00091 40.9961L22.3967 46.0873L25.3416 42.8066L30.8795 42.6019C31.5211 44.9378 33.0473 47.0009 35.3045 48.2346C37.5617 49.4682 40.1217 49.6389 42.4333 48.9186L45.252 53.6896L44.0808 57.9394ZM37.5872 44.0581C35.3181 42.8179 34.5153 39.9149 35.7946 37.5742C37.0736 35.2342 39.9506 34.3421 42.2196 35.5822C44.489 36.8225 45.2919 39.7259 44.0129 42.0659C42.7336 44.4066 39.8566 45.2984 37.5872 44.0581Z" fill="#B4B9BF" />
    </g>
    <defs>
        <clipPath id="clip0_146_134">
            <rect width="80" height="80" fill="white" />
        </clipPath>
    </defs>
</svg>