<svg width="1024" height="1024" viewBox="0 0 1024 1024" fill="none" xmlns="http://www.w3.org/2000/svg">
<g clip-path="url(#clip0_457_2)">
<path d="M730.442 311.994L768.675 68L576.589 223.118L596.08 289.618L551.543 366.803C539.059 363.448 525.994 361.491 512.448 361.491C442.785 361.491 384.352 408.933 367.243 473.247H278.138L230.329 423.116L0 511.983L230.329 600.856L278.149 550.717H367.244C384.343 615.024 442.787 662.485 512.45 662.485C525.984 662.485 539.038 660.528 551.513 657.18L596.061 734.376L576.573 800.875L768.656 956L730.433 712L663.117 695.64L618.635 618.569C645.962 591.322 662.879 553.629 662.879 511.991C662.879 470.354 645.97 432.667 618.663 405.425L663.132 328.35L730.442 311.994ZM588.215 511.991C588.215 553.848 554.293 587.787 512.448 587.787C470.614 587.787 436.689 553.846 436.689 511.991C436.689 470.127 470.614 436.185 512.448 436.185C554.293 436.185 588.215 470.127 588.215 511.991Z" fill="#B4B9BF"/>
</g>
<defs>
<clipPath id="clip0_457_2">
<rect width="1024" height="1024" fill="white" transform="matrix(0 -1 1 0 0 1024)"/>
</clipPath>
</defs>
</svg>
